<svg xmlns="http://www.w3.org/2000/svg" viewBox="0 0 714.08 355.18"><defs><style>.cls-1{fill:#4c4c4c;}.cls-2{fill:#595959;}</style></defs><g id="Layer_2" data-name="Layer 2"><g id="Layer_1-2" data-name="Layer 1"><path class="cls-1" d="M232.33,303.62H196.11V350.3H128.88V303.62H0V258.69L109.38,106.47h71.4L81.51,248.94H131V207.49h65.14v41.45h36.22Z"/><path class="cls-1" d="M245.92,228.38c0-80.46,45.28-126.79,107.64-126.79,62,0,107.28,46.33,107.28,126.79s-45.28,126.8-107.28,126.8C291.2,355.18,245.92,308.85,245.92,228.38Zm145.6,0c0-51.2-16-70.36-38-70.36-22.3,0-38.32,19.16-38.32,70.36s16,70.37,38.32,70.37C375.5,298.75,391.52,279.59,391.52,228.38Z"/><path class="cls-1" d="M714.08,303.62H677.85V350.3H610.62V303.62H481.74V258.69L591.12,106.47h71.4L563.25,248.94h49.46V207.49h65.14v41.45h36.23Z"/><path class="cls-2" d="M402.5,149.88a79.39,79.39,0,0,0,9.68-1.79c-11.76.72-26.4-6-26.4-6h5.76c-4.51-1.55-12.15-13.5-17-21.71-3-9.45-11.44-19.18-21.32-27.88-15.89-14-20.15-26-20.15-26l2.8,1-5.46-6.17,2.61.6s-4.22-5.7-5.92-10a6.08,6.08,0,0,0,4.87.57,1.19,1.19,0,0,0,.71-1.53l-5.41-15.06s1.49-11-2.78-14.08c-4.15-4.5-5.71-11.28-6.16-16.91.23-.83.47-2.73-.59-3.67s-3.2-2.26-4.63,0c-1.42.94-3.43,2.25-4,3.79a1.55,1.55,0,0,0,0,.76l-.82.73.8.3c-.37,2.83-2.27,2.68-3.54,2.24l.25-.84-1.31.35-.1-.06a.4.4,0,0,0-.62-.23c-.91.65-2.73,2.19-2.47,4.06a14.81,14.81,0,0,1,0,13.75l-7.49,8.29L290,36.58l4.33.55-6.5,5.3,5.29-1.92-3.69,7.32,4.37-4.16s-4.07,7.75-3.46,25.58,10.56,31.2,10.94,34.78-2.9,9.82-2.23,17.4c.62,7.07-4,17.58-5.37,19.41-5.71-1.48-7.69,1-8.37,3a2.24,2.24,0,0,0-.16.34,2.79,2.79,0,0,0-.26.59,1.7,1.7,0,0,0,1.64,2.21H297a2.35,2.35,0,0,0,1.9,3.65c2.56.06,6.88.08,12.41-.13a2.35,2.35,0,0,0,2.21-1.91c1.67-8.42,7.56-20,7.56-20s2-.58,9,4.64c.66,3.61,4.4,5.79,5.46,7.06s.37,2,.37,2a14.46,14.46,0,0,0-7.19-.63c-1.8.42-2,1.81-1.81,3a2.31,2.31,0,0,0,2.28,1.94h7.24a3.22,3.22,0,0,0-2.24.72,2.29,2.29,0,0,0,1.68,3.89h27.81c5.26,0,6.84-1.15,9-11.3,3.44,6.59,6.14,18.24,6.14,18.24l.48-4.32c1,4.56,9.36,9.36,9.36,9.36l-2.4-4.8s1.2,2.4,9.64,2.64,18-7.44,25.63,2.16C422.82,153.82,409,150.79,402.5,149.88ZM309.8,7a11.24,11.24,0,0,1,.29,2.11l-1,.93.9.24c-.16.7-.55,1.21-1.37,1.15A4,4,0,0,1,307,11l.27-.82-.94.37a2.93,2.93,0,0,1-.79-1A2.93,2.93,0,0,0,309.8,7Zm-4.55,137.69a6.66,6.66,0,0,0-4.61-.78,96.55,96.55,0,0,0,9.64-23.08C310.59,127.9,305.29,144.55,305.25,144.69Z"/></g></g></svg>